# xmcd CD database file
#
# Track frame offsets:
#	150
#	73455
#	120072
#	143248
#	189386
#
# Disc length: 3371 seconds
#
# Revision: 0
# Processed by: cddbd v1.5.2PL0 Copyright (c) Steve Scherf et al.
# Submitted via: CDex 1.51
#
DISCID=430d2905
DTITLE=Seymour Wright - Eddie Prevost - GAMUT
DYEAR=2008
DGENRE=Jazz
TTITLE0=G
TTITLE1=A
TTITLE2=M
TTITLE3=U
TTITLE4=T
EXTD=YEAR: 2008
EXTT0=
EXTT1=
EXTT2=
EXTT3=
EXTT4=
PLAYORDER=
